<svg xmlns="http://www.w3.org/2000/svg" width="447.59" height="426.57" viewBox="0 0 447.59 426.57"><title>Asset 1</title><g id="Layer_2" data-name="Layer 2"><g id="Layer_1-2" data-name="Layer 1"><path d="M147.4,22l-5.26,76.34L77.29,68.94q6.12-6.64,12.78-12.76A213.7,213.7,0,0,1,142.5,20.72Z" style="fill:#00923d;fill-rule:evenodd"/><path d="M68.51,79.11,46.06,151l96.08-52.65L77.29,68.94Q72.75,73.89,68.51,79.11Z" style="fill:#d74c66;fill-rule:evenodd"/><path d="M68.51,79.11,46.06,151,32.6,143.81A213,213,0,0,1,68.51,79.11Z" style="fill:#b84058;fill-rule:evenodd"/><path d="M21.29,202.26,46.06,151,32.6,143.81A212.6,212.6,0,0,0,21.29,202.26Z" style="fill:#240c57;fill-rule:evenodd"/><polygon points="100.2 121.29 166.53 152.37 200.76 260.29 100.2 121.29" style="fill:#f78916;fill-rule:evenodd"/><polygon points="291.57 210.28 166.53 152.37 200.76 260.29 291.57 210.28" style="fill:#974478;fill-rule:evenodd"/><polygon points="291.57 210.28 166.53 152.37 262.62 126.05 291.57 210.28" style="fill:#4c0555;fill-rule:evenodd"/><polygon points="291.57 210.28 369.44 164.49 262.62 126.05 291.57 210.28" style="fill:#084099;fill-rule:evenodd"/><polygon points="291.57 210.28 369.44 164.49 361.33 241.87 291.57 210.28" style="fill:#00923d;fill-rule:evenodd"/><polygon points="291.57 210.28 265.25 294.51 361.33 241.87 291.57 210.28" style="fill:#41b03c;fill-rule:evenodd"/><polygon points="291.57 210.28 265.25 294.51 200.76 260.29 291.57 210.28" style="fill:#dd107a;fill-rule:evenodd"/><polygon points="219.19 389.93 265.25 294.51 200.76 260.29 219.19 389.93" style="fill:#42b8e2;fill-rule:evenodd"/><polygon points="219.19 389.93 97.77 231.34 200.76 260.29 219.19 389.93" style="fill:#0071b7;fill-rule:evenodd"/><polygon points="100.2 121.29 97.77 231.34 200.76 260.29 100.2 121.29" style="fill:#ef4d19;fill-rule:evenodd"/><path d="M219.19,389.93,97.77,231.34,142.7,406c2.72,1.29,5.48,2.54,8.27,3.73Z" style="fill:#084099;fill-rule:evenodd"/><path d="M112.89,388.65l15.54-38.15L142.7,406A213.67,213.67,0,0,1,112.89,388.65Z" style="fill:#41b03c;fill-rule:evenodd"/><path d="M83.18,363.79l45.25-13.29-15.54,38.15A214.16,214.16,0,0,1,83.18,363.79Z" style="fill:#00923d;fill-rule:evenodd"/><path d="M151,409.68l68.22-19.75-13.5,34.73A211.75,211.75,0,0,1,151,409.68Z" style="fill:#b84058;fill-rule:evenodd"/><path d="M23.06,242.83l74.71-11.49-43.09,97A212.17,212.17,0,0,1,23.06,242.83Z" style="fill:#dd107a;fill-rule:evenodd"/><path d="M.84,249.8,0,246.38l.34,0C.5,247.49.66,248.65.84,249.8Z" style="fill:#dd107a;fill-rule:evenodd"/><path d="M54.68,328.35l43.09-97L128.43,350.5,83.18,363.79A214.16,214.16,0,0,1,54.68,328.35Z" style="fill:#240c57;fill-rule:evenodd"/><path d="M97.77,231.34,23.06,242.83a214.88,214.88,0,0,1-2-29.54c0-3.7.1-7.37.28-11L46.06,151l51.71,80.38Zm-97.43,15-.34,0,.27-.55Z" style="fill:#42b8e2;fill-rule:evenodd"/><polygon points="100.2 121.29 97.77 231.34 46.06 150.96 100.2 121.29" style="fill:#0071b7;fill-rule:evenodd"/><polygon points="100.2 121.29 166.53 152.37 142.14 98.31 100.2 121.29" style="fill:#e19f0b;fill-rule:evenodd"/><polygon points="142.14 98.31 166.53 152.37 262.62 126.05 142.14 98.31" style="fill:#240c57;fill-rule:evenodd"/><polygon points="142.14 98.31 200.75 60.24 262.62 126.05 142.14 98.31" style="fill:#b7d225;fill-rule:evenodd"/><path d="M361.32,241.86l-96.08,52.66,105.6,82.61q8-6.69,15.35-14.12Z" style="fill:#b7d225;fill-rule:evenodd"/><path d="M361.33,241.86l60.43,49.5-12.45,43.85A215.26,215.26,0,0,1,386.19,363Z" style="fill:#b84058;fill-rule:evenodd"/><polygon points="361.33 241.87 421.76 291.37 369.48 164.16 361.33 241.87" style="fill:#930035;fill-rule:evenodd"/><path d="M447.54,216.8l-.62.48L440.6,159a213.8,213.8,0,0,1,7,54.32C447.59,214.46,447.56,215.63,447.54,216.8Z" style="fill:#41b03c;fill-rule:evenodd"/><path d="M434.43,139.39l-47.28,67.76,59.77,10.13L440.6,159Q438,149,434.43,139.39Z" style="fill:#00923d;fill-rule:evenodd"/><polygon points="421.76 291.37 387.15 207.15 446.92 217.28 421.76 291.37" style="fill:#240c57;fill-rule:evenodd"/><path d="M421.76,291.37l10,2.62a212.24,212.24,0,0,0,15.76-76l-.61-.72Z" style="fill:#4c0555;fill-rule:evenodd"/><path d="M434.43,139.39l-47.28,67.76-33-78.28L432.35,134C433.07,135.79,433.76,137.58,434.43,139.39Z" style="fill:#42b8e2;fill-rule:evenodd"/><path d="M397.15,75.57l-43,53.3L432.35,134A213.06,213.06,0,0,0,397.15,75.57Z" style="fill:#b84058;fill-rule:evenodd"/><path d="M219.19,389.93l46.05-95.41,105.6,82.61a213,213,0,0,1-21.75,15.95Z" style="fill:#ef4d19;fill-rule:evenodd"/><path d="M205.69,424.66l13.5-34.73,69.07,1.67-35.41,34.16q-9.18.8-18.55.81A216,216,0,0,1,205.69,424.66Z" style="fill:#d74c66;fill-rule:evenodd"/><path d="M252.85,425.76l35.41-34.16,2.16,27.5A212.42,212.42,0,0,1,252.85,425.76Z" style="fill:#ee9a9e;fill-rule:evenodd"/><path d="M349.09,393.08l-60.83-1.48,2.16,27.5A212.06,212.06,0,0,0,349.09,393.08Z" style="fill:#f78916;fill-rule:evenodd"/><path d="M421.76,291.37,409.31,335.2a214,214,0,0,0,13.25-21.59q3.17-5.94,6-12.08c1.13-2.48,2.2-5,3.24-7.54Z" style="fill:#d74c66;fill-rule:evenodd"/><path d="M142.5,20.72,147.4,22l-1.73-2.73Z" style="fill:#0071b7;fill-rule:evenodd"/><polygon points="200.75 60.24 147.41 21.97 142.14 98.31 200.75 60.24" style="fill:#41b03c;fill-rule:evenodd"/><polygon points="354.13 128.87 369.44 164.49 262.62 126.05 354.13 128.87" style="fill:#0071b7;fill-rule:evenodd"/><polygon points="354.13 128.87 291.98 64 262.62 126.05 354.13 128.87" style="fill:#ffc505;fill-rule:evenodd"/><path d="M354.13,128.87,292,64,367.2,46.47a215.09,215.09,0,0,1,30.75,30Z" style="fill:#930035;fill-rule:evenodd"/><polygon points="200.75 60.24 291.98 64 262.62 126.05 200.75 60.24" style="fill:#e19f0b;fill-rule:evenodd"/><polygon points="200.75 60.24 291.98 64 231.21 0.43 200.75 60.24" style="fill:#f78916;fill-rule:evenodd"/><path d="M200.75,60.24,147.4,22l-1.73-2.73A212.51,212.51,0,0,1,230.29.05l.92.38Z" style="fill:#ef4d19;fill-rule:evenodd"/><path d="M299.91,10.3,292,64,231.21.43,232.46,0l1.84,0A213,213,0,0,1,299.91,10.3Z" style="fill:#974478;fill-rule:evenodd"/><path d="M299.91,10.3,292,64,367.2,46.47A212.82,212.82,0,0,0,299.91,10.3Z" style="fill:#00923d;fill-rule:evenodd"/></g></g></svg>